<svg width="40" height="40" viewBox="0 0 40 40" fill="none" xmlns="http://www.w3.org/2000/svg">
<path d="M25.916 21.6668C27.166 21.6668 28.266 20.9835 28.8327 19.9502L34.7993 9.1335C34.9398 8.88087 35.0119 8.59595 35.0084 8.30692C35.0049 8.01789 34.9261 7.73478 34.7796 7.4856C34.6331 7.23642 34.4241 7.0298 34.1732 6.88619C33.9224 6.74259 33.6384 6.66697 33.3493 6.66683H8.68268L7.11602 3.3335H1.66602V6.66683H4.99935L10.9993 19.3168L8.74935 23.3835C7.53268 25.6168 9.13268 28.3335 11.666 28.3335H31.666V25.0002H11.666L13.4993 21.6668H25.916ZM10.266 10.0002H30.516L25.916 18.3335H14.216L10.266 10.0002ZM11.666 30.0002C9.83268 30.0002 8.34935 31.5002 8.34935 33.3335C8.34935 35.1668 9.83268 36.6668 11.666 36.6668C13.4993 36.6668 14.9993 35.1668 14.9993 33.3335C14.9993 31.5002 13.4993 30.0002 11.666 30.0002ZM28.3327 30.0002C26.4993 30.0002 25.016 31.5002 25.016 33.3335C25.016 35.1668 26.4993 36.6668 28.3327 36.6668C30.166 36.6668 31.666 35.1668 31.666 33.3335C31.666 31.5002 30.166 30.0002 28.3327 30.0002Z" fill="#7c7d7c"/>
</svg>
