<svg width="30" height="31" viewBox="0 0 30 31" fill="none" xmlns="http://www.w3.org/2000/svg">
<path fill-rule="evenodd" clip-rule="evenodd" d="M25.6245 4.38123C24.241 2.9875 22.5944 1.88251 20.7804 1.13041C18.9663 0.378315 17.021 -0.00590383 15.0572 6.85717e-05C6.82486 6.85717e-05 0.124997 6.70118 0.124997 14.9385C0.124838 17.56 0.814591 20.1354 2.12496 22.4059L0 30.1482L7.91984 28.0695C10.1087 29.2628 12.5616 29.8889 15.0547 29.8907C18.0101 29.8913 20.8994 29.0155 23.357 27.374C25.8147 25.7325 27.7303 23.399 28.8617 20.6687C29.9931 17.9384 30.2895 14.9339 29.7132 12.0352C29.137 9.13646 27.7141 6.47372 25.6245 4.38373V4.38123ZM15.0622 27.3745C12.8366 27.3735 10.6523 26.7733 8.73857 25.637L8.28358 25.3658L3.58368 26.597L4.83365 22.0159L4.53991 21.5459C2.91107 18.9596 2.29297 15.8636 2.80387 12.8502C3.31477 9.8368 4.91879 7.11754 7.30904 5.2127C9.6993 3.30787 12.708 2.3512 15.7594 2.52573C18.8108 2.70026 21.6908 3.99374 23.8483 6.15869C25.586 7.89684 26.7694 10.1112 27.2488 12.5219C27.7282 14.9325 27.4821 17.4312 26.5416 19.7019C25.601 21.9727 24.0083 23.9136 21.9648 25.2793C19.9213 26.645 17.5188 27.3741 15.0609 27.3745H15.0622ZM21.8745 18.0672C21.4996 17.8784 19.6658 16.9785 19.3258 16.8535C18.9859 16.7285 18.7359 16.6647 18.4821 17.0422C18.2284 17.4197 17.5171 18.2559 17.2996 18.5072C17.0821 18.7584 16.8634 18.7909 16.4934 18.6022C16.1234 18.4134 14.9147 18.0197 13.4935 16.7472C12.675 15.9923 11.9717 15.1213 11.406 14.1623C11.1873 13.7873 11.3823 13.586 11.5723 13.4035C11.7623 13.221 11.9473 12.9686 12.131 12.7498C12.2864 12.5613 12.4128 12.3506 12.506 12.1248C12.5556 12.0219 12.5788 11.9083 12.5736 11.7942C12.5684 11.68 12.5348 11.569 12.476 11.4711C12.3747 11.2836 11.6248 9.44612 11.3248 8.69739C11.0248 7.94865 10.7135 8.0724 10.4835 8.0549C10.2535 8.0374 10.0173 8.04365 9.77105 8.04365C9.58121 8.0481 9.39435 8.09183 9.22224 8.17207C9.05014 8.25232 8.89652 8.36734 8.77107 8.50989C8.43482 8.88113 7.4686 9.78737 7.4686 11.6248C7.4686 13.4623 8.80482 15.2348 8.99231 15.4872C9.17981 15.7397 11.6248 19.5084 15.3747 21.1246C16.2647 21.5071 16.9597 21.7371 17.4996 21.9146C18.2611 22.1443 19.0655 22.1943 19.8496 22.0609C20.5671 21.9559 22.057 21.1596 22.3708 20.2884C22.6845 19.4172 22.6833 18.6634 22.5895 18.5147C22.4958 18.3659 22.2533 18.2572 21.877 18.0659L21.8745 18.0672Z" fill="white"/>
</svg>
